<svg width="261" height="76" viewBox="0 0 261 76" fill="none" xmlns="http://www.w3.org/2000/svg">
<path d="M127.489 25.1352C127.24 25.5717 126.969 25.894 126.678 26.1019C126.408 26.289 126.065 26.3826 125.649 26.3826C125.213 26.3826 124.735 26.2266 124.215 25.9148C123.716 25.5821 123.113 25.2183 122.406 24.8233C121.699 24.4283 120.868 24.0749 119.911 23.763C118.976 23.4304 117.863 23.2641 116.574 23.2641C115.41 23.2641 114.392 23.4096 113.518 23.7007C112.645 23.9709 111.907 24.3555 111.304 24.8545C110.722 25.3534 110.286 25.9564 109.994 26.6632C109.703 27.3493 109.558 28.1081 109.558 28.9397C109.558 30 109.849 30.8836 110.431 31.5904C111.034 32.2973 111.824 32.9002 112.801 33.3991C113.778 33.8981 114.89 34.3451 116.138 34.7401C117.385 35.1351 118.664 35.5613 119.974 36.0187C121.283 36.4553 122.562 36.975 123.809 37.5779C125.057 38.16 126.169 38.9085 127.146 39.8232C128.123 40.7172 128.903 41.8191 129.485 43.1288C130.088 44.4386 130.389 46.029 130.389 47.9001C130.389 49.9375 130.036 51.8502 129.329 53.6381C128.643 55.4053 127.624 56.9541 126.273 58.2847C124.942 59.5944 123.31 60.6339 121.377 61.4032C119.443 62.1516 117.229 62.5258 114.735 62.5258C113.3 62.5258 111.886 62.3803 110.493 62.0892C109.1 61.819 107.76 61.4239 106.471 60.9042C105.202 60.3845 104.007 59.7608 102.884 59.0331C101.762 58.3055 100.764 57.4947 99.8906 56.6007L102.354 52.5778C102.562 52.2868 102.832 52.0477 103.165 51.8606C103.498 51.6527 103.851 51.5487 104.225 51.5487C104.745 51.5487 105.306 51.767 105.909 52.2036C106.512 52.6194 107.229 53.0872 108.061 53.6069C108.893 54.1267 109.859 54.6049 110.961 55.0414C112.084 55.4572 113.425 55.6651 114.984 55.6651C117.375 55.6651 119.225 55.1038 120.535 53.9812C121.845 52.8377 122.5 51.2057 122.5 49.0851C122.5 47.9001 122.198 46.9334 121.595 46.1849C121.013 45.4365 120.233 44.8128 119.256 44.3138C118.279 43.7941 117.167 43.3575 115.92 43.0041C114.672 42.6507 113.404 42.266 112.115 41.8502C110.826 41.4344 109.558 40.9355 108.31 40.3534C107.063 39.7713 105.951 39.0124 104.974 38.0769C103.997 37.1413 103.207 35.9771 102.604 34.5842C102.022 33.1705 101.73 31.4345 101.73 29.3763C101.73 27.7339 102.053 26.1331 102.697 24.5738C103.362 23.0146 104.319 21.6321 105.566 20.4262C106.814 19.2204 108.352 18.2537 110.182 17.526C112.011 16.7984 114.111 16.4346 116.481 16.4346C119.142 16.4346 121.595 16.8504 123.841 17.682C126.086 18.5136 127.999 19.6778 129.579 21.1747L127.489 25.1352ZM137.239 57.7857C137.239 57.1412 137.354 56.5279 137.582 55.9458C137.832 55.3637 138.164 54.8647 138.58 54.4489C138.996 54.0331 139.495 53.7005 140.077 53.451C140.659 53.2015 141.283 53.0768 141.948 53.0768C142.614 53.0768 143.227 53.2015 143.788 53.451C144.37 53.7005 144.869 54.0331 145.285 54.4489C145.722 54.8647 146.065 55.3637 146.314 55.9458C146.564 56.5279 146.688 57.1412 146.688 57.7857C146.688 58.451 146.564 59.0747 146.314 59.6568C146.065 60.2181 145.722 60.7067 145.285 61.1225C144.869 61.5383 144.37 61.8605 143.788 62.0892C143.227 62.3387 142.614 62.4634 141.948 62.4634C141.283 62.4634 140.659 62.3387 140.077 62.0892C139.495 61.8605 138.996 61.5383 138.58 61.1225C138.164 60.7067 137.832 60.2181 137.582 59.6568C137.354 59.0747 137.239 58.451 137.239 57.7857ZM180.075 44.9999L174.587 30C174.316 29.3347 174.036 28.5447 173.745 27.6299C173.454 26.7152 173.162 25.7277 172.871 24.6674C172.601 25.7277 172.321 26.7256 172.029 27.6611C171.738 28.5759 171.458 29.3763 171.187 30.0624L165.73 44.9999H180.075ZM194.888 62.0269H188.402C187.674 62.0269 187.081 61.8501 186.624 61.4967C186.167 61.1225 185.824 60.6651 185.595 60.1246L182.227 50.925H163.547L160.179 60.1246C160.013 60.6027 159.691 61.0393 159.212 61.4343C158.734 61.8294 158.142 62.0269 157.435 62.0269H150.886L168.63 16.9335H177.175L194.888 62.0269ZM199.088 57.7857C199.088 57.1412 199.202 56.5279 199.431 55.9458C199.68 55.3637 200.013 54.8647 200.429 54.4489C200.844 54.0331 201.343 53.7005 201.925 53.451C202.508 53.2015 203.131 53.0768 203.797 53.0768C204.462 53.0768 205.075 53.2015 205.636 53.451C206.219 53.7005 206.718 54.0331 207.133 54.4489C207.57 54.8647 207.913 55.3637 208.162 55.9458C208.412 56.5279 208.537 57.1412 208.537 57.7857C208.537 58.451 208.412 59.0747 208.162 59.6568C207.913 60.2181 207.57 60.7067 207.133 61.1225C206.718 61.5383 206.219 61.8605 205.636 62.0892C205.075 62.3387 204.462 62.4634 203.797 62.4634C203.131 62.4634 202.508 62.3387 201.925 62.0892C201.343 61.8605 200.844 61.5383 200.429 61.1225C200.013 60.7067 199.68 60.2181 199.431 59.6568C199.202 59.0747 199.088 58.451 199.088 57.7857ZM232.47 44.5633V62.0269H224.112V44.5633L207.678 16.9335H215.068C215.796 16.9335 216.368 17.1102 216.784 17.4637C217.22 17.8171 217.584 18.2641 217.875 18.8046L226.108 33.8669C226.586 34.7609 227.002 35.6029 227.355 36.3929C227.73 37.1829 228.062 37.9729 228.353 38.7629C228.623 37.9729 228.935 37.1829 229.289 36.3929C229.642 35.6029 230.048 34.7609 230.505 33.8669L238.707 18.8046C238.935 18.3472 239.278 17.9211 239.736 17.526C240.193 17.131 240.775 16.9335 241.482 16.9335H248.904L232.47 44.5633ZM248.145 57.7857C248.145 57.1412 248.26 56.5279 248.488 55.9458C248.738 55.3637 249.071 54.8647 249.486 54.4489C249.902 54.0331 250.401 53.7005 250.983 53.451C251.565 53.2015 252.189 53.0768 252.854 53.0768C253.52 53.0768 254.133 53.2015 254.694 53.451C255.276 53.7005 255.775 54.0331 256.191 54.4489C256.628 54.8647 256.971 55.3637 257.22 55.9458C257.47 56.5279 257.594 57.1412 257.594 57.7857C257.594 58.451 257.47 59.0747 257.22 59.6568C256.971 60.2181 256.628 60.7067 256.191 61.1225C255.775 61.5383 255.276 61.8605 254.694 62.0892C254.133 62.3387 253.52 62.4634 252.854 62.4634C252.189 62.4634 251.565 62.3387 250.983 62.0892C250.401 61.8605 249.902 61.5383 249.486 61.1225C249.071 60.7067 248.738 60.2181 248.488 59.6568C248.26 59.0747 248.145 58.451 248.145 57.7857Z" fill="white"/>
<path fill-rule="evenodd" clip-rule="evenodd" d="M19.7678 39.9832L21.6801 36.1585C17.6448 35.9298 14.4319 32.5745 14.4319 28.4828C14.4319 24.2436 17.8808 20.795 22.12 20.795C24.4735 20.795 26.5834 21.858 27.9947 23.5292L28.2379 23.0428H32.5184C30.5538 19.3027 26.6298 16.7458 22.12 16.7458C15.6481 16.7458 10.3828 22.0111 10.3828 28.4828C10.3828 34.1494 14.4192 38.8909 19.7678 39.9832Z" fill="white"/>
<path d="M22.2892 13.8758C23.4074 13.8758 24.3138 12.9694 24.3138 11.8512V9.13589C24.3138 8.01772 23.4074 7.11133 22.2892 7.11133C21.171 7.11133 20.2646 8.01772 20.2646 9.13589V11.8512C20.2646 12.9694 21.171 13.8758 22.2892 13.8758Z" fill="white"/>
<path d="M9.04819 18.0344C9.44359 18.4298 9.96167 18.6274 10.4798 18.6274C10.9978 18.6274 11.5161 18.4296 11.9113 18.0344C12.7019 17.2438 12.7019 15.9619 11.9113 15.1713L9.99123 13.2514C9.20064 12.4608 7.91869 12.4608 7.1281 13.2514C6.33751 14.042 6.33751 15.3239 7.1281 16.1145L9.04819 18.0344Z" fill="white"/>
<path d="M7.39239 26.3401C7.39239 25.2219 6.486 24.3155 5.36783 24.3155H2.65249C1.53433 24.3155 0.62793 25.2219 0.62793 26.3401C0.62793 27.4582 1.53433 28.3646 2.65249 28.3646H5.36783C6.486 28.3646 7.39239 27.4582 7.39239 26.3401Z" fill="white"/>
<path d="M8.8088 38.6913L7.90544 39.5947C7.11485 40.3853 7.11485 41.6672 7.90544 42.458C8.30084 42.8534 8.81892 43.051 9.33701 43.051C9.8551 43.051 10.3734 42.8534 10.7686 42.458L11.6719 41.5547C12.4625 40.7641 12.4625 39.4821 11.6719 38.6913C10.8813 37.9007 9.59939 37.9007 8.8088 38.6913Z" fill="white"/>
<path d="M33.9991 18.8672C34.5172 18.8672 35.0355 18.6694 35.4307 18.2742L36.3338 17.3709C37.1244 16.5801 37.1244 15.2983 36.3338 14.5077C35.5433 13.7171 34.2611 13.7171 33.4707 14.5077L32.5676 15.4111C31.777 16.2019 31.777 17.4836 32.5676 18.2742C32.9629 18.6696 33.481 18.8672 33.9991 18.8672Z" fill="white"/>
<path fill-rule="evenodd" clip-rule="evenodd" d="M28.8458 19.9404C28.0356 19.9404 27.295 20.4638 26.9328 21.2924L14.0998 50.6422C13.7683 51.4004 13.8037 52.3009 14.1935 53.0219C14.5832 53.743 15.2716 54.1817 16.0128 54.1817H43.8175V58.3992H41.6787C40.4976 58.3992 39.7149 59.3489 39.7149 60.6994C39.7149 62.05 40.4976 62.7441 41.6787 62.7441H49.9384C51.1195 62.7441 51.8234 62.05 51.8234 60.6994C51.8234 59.3489 51.1195 58.3992 49.9384 58.3992H48.0952V54.1817H67.3446C68.1547 54.1817 68.8952 53.6583 69.2575 52.8297L82.0905 23.48C82.422 22.7218 82.3865 21.8215 81.9968 21.1004C81.6071 20.3794 80.9188 19.9404 80.1775 19.9404H28.8458ZM49.165 49.2901L59.8591 24.832H47.5314L36.8371 49.2901H49.165ZM19.4735 49.2901L30.1677 24.832H42.7485L32.0546 49.2901H19.4735ZM66.0228 49.2901H53.9478L64.6419 24.832H76.7169L66.0228 49.2901Z" fill="white"/>
</svg>
